<mxfile host="app.diagrams.net" modified="2023-10-18T02:42:36.199Z" agent="Mozilla/5.0 (Macintosh; Intel Mac OS X 10_15_7) AppleWebKit/537.36 (KHTML, like Gecko) Chrome/118.0.0.0 Safari/537.36" version="21.7.2" etag="9IkMRiCXyB08Y-fnf03r" type="github">
  <diagram name="第 1 页" id="tLHabkSQr1P3b43YkIMk">
    <mxGraphModel>
      <root>
        <mxCell id="0" />
        <mxCell id="1" parent="0" />
      </root>
    </mxGraphModel>
  </diagram>
</mxfile>
